<svg xmlns="http://www.w3.org/2000/svg" viewBox="0 0 300 100" width="300" height="100">
  <defs>
    <linearGradient id="cirqaGradient" x1="0%" y1="0%" x2="100%" y2="0%">
      <stop offset="0%" stop-color="#9333EA" /> <!-- purple-600 -->
      <stop offset="50%" stop-color="#8B5CF6" /> <!-- purple-500 -->
      <stop offset="100%" stop-color="#2563EB" /> <!-- blue-600 -->
    </linearGradient>
  </defs>
  
  <!-- Cirqa Logo -->
  <g transform="translate(15, 5) scale(2.5)">
    <path d="M20 10C14.4772 10 10 14.4772 10 20C10 25.5228 14.4772 30 20 30C25.5228 30 30 25.5228 30 20C30 14.4772 25.5228 10 20 10ZM20 26C16.6863 26 14 23.3137 14 20C14 16.6863 16.6863 14 20 14C23.3137 14 26 16.6863 26 20C26 23.3137 23.3137 26 20 26Z" fill="url(#cirqaGradient)"/>
  </g>
  
  <!-- Text -->
  <text x="110" y="70" font-family="Arial, sans-serif" font-size="40" font-weight="bold" fill="#ffffff">CIRQA</text>
</svg>